<?xml version="1.0" encoding="UTF-8" standalone="no"?>
<svg
   xmlns:dc="http://purl.org/dc/elements/1.1/"
   xmlns:cc="http://creativecommons.org/ns#"
   xmlns:rdf="http://www.w3.org/1999/02/22-rdf-syntax-ns#"
   xmlns:svg="http://www.w3.org/2000/svg"
   xmlns="http://www.w3.org/2000/svg"
   xmlns:sodipodi="http://sodipodi.sourceforge.net/DTD/sodipodi-0.dtd"
   xmlns:inkscape="http://www.inkscape.org/namespaces/inkscape"
   role="img"
   viewBox="0 0 24 24"
   version="1.1"
   id="svg6"
   sodipodi:docname="octave_color.svg"
   inkscape:version="0.92.5 (2060ec1f9f, 2020-04-08)">
  <metadata
     id="metadata12">
    <rdf:RDF>
      <cc:Work
         rdf:about="">
        <dc:format>image/svg+xml</dc:format>
        <dc:type
           rdf:resource="http://purl.org/dc/dcmitype/StillImage" />
        <dc:title>Octave</dc:title>
      </cc:Work>
    </rdf:RDF>
  </metadata>
  <defs
     id="defs10" />
  <sodipodi:namedview
     pagecolor="#ffffff"
     bordercolor="#666666"
     borderopacity="1"
     objecttolerance="10"
     gridtolerance="10"
     guidetolerance="10"
     inkscape:pageopacity="0"
     inkscape:pageshadow="2"
     inkscape:window-width="1920"
     inkscape:window-height="1016"
     id="namedview8"
     showgrid="false"
     inkscape:zoom="78.666667"
     inkscape:cx="16.326526"
     inkscape:cy="6.0459137"
     inkscape:window-x="0"
     inkscape:window-y="27"
     inkscape:window-maximized="1"
     inkscape:current-layer="svg6" />
  <title
     id="title2">Octave</title>
  <path
     style="fill:#fc924c;fill-opacity:1;stroke-width:0.07610508"
     d="M 0.9837317,15.088539 C 0.45003935,14.775961 0.45785974,14.821709 0.43229173,11.862765 0.41036164,9.3248322 0.41693072,9.1760824 0.56515522,8.8542128 0.69093966,8.581072 0.78924808,8.4866411 1.0736047,8.3658179 1.4086907,8.2234396 1.5635486,8.2171298 4.205694,8.2381948 c 3.0804439,0.024559 3.0328183,0.017048 3.3582312,0.52969 0.1426658,0.2247497 0.1513227,0.3939008 0.1515965,2.9620282 3.261e-4,3.046329 -0.00668,3.089331 -0.5480612,3.368229 -0.2424274,0.124886 -0.5018817,0.13627 -3.1000747,0.136016 -2.6735788,-2.62e-4 -2.8496755,-0.0086 -3.0836541,-0.145619 z"
     id="path822"
     inkscape:connector-curvature="0" />
  <path
     style="fill:#fc924c;fill-opacity:1;stroke-width:0.03002731"
     d="M 18.044893,7.0201272 C 18.008074,7.0048682 17.95107,6.9477194 17.9182,6.893127 17.86094,6.798015 17.85844,6.741115 17.85833,5.5307011 c -9.3e-5,-1.0701311 0.0068,-1.2767147 0.04514,-1.3518143 0.0916,-0.1794171 0.09911,-0.1803392 1.467449,-0.1802154 1.193842,1.083e-4 1.251322,0.00269 1.344856,0.060453 0.05374,0.033187 0.11122,0.096308 0.127716,0.1402699 0.01892,0.050383 0.02691,0.5584134 0.02163,1.3743146 l -0.0084,1.2943849 -0.0827,0.083765 -0.0827,0.083765 -1.289764,0.00612 c -0.73027,0.00347 -1.318804,-0.0059 -1.356707,-0.021621 z"
     id="path824"
     inkscape:connector-curvature="0" />
  <path
     style="fill:#fc924c;fill-opacity:1;stroke-width:0.02846274"
     d="m 19.532856,21.968654 c -0.135388,-0.06976 -0.246473,-0.198896 -0.284123,-0.330275 -0.04341,-0.151477 -0.0409,-3.357171 0.0027,-3.483448 0.05128,-0.148433 0.166057,-0.278562 0.29623,-0.335852 0.112028,-0.04931 0.222837,-0.05241 1.891042,-0.05299 1.685659,-5.85e-4 1.777265,0.002 1.879305,0.05269 0.135628,0.06741 0.222411,0.157312 0.279364,0.289416 0.03871,0.08979 0.04475,0.331813 0.04475,1.793971 v 1.690177 l -0.06505,0.123398 c -0.03577,0.06787 -0.115044,0.161957 -0.176142,0.209083 l -0.111095,0.08569 -1.82604,0.006 c -1.754883,0.0058 -1.83013,0.004 -1.930964,-0.04796 z"
     id="path826"
     inkscape:connector-curvature="0" />
  <path
     d="M10.5.007c-2.414-.09-4.658.715-6.286 2.485C2.913 3.906 2.188 5.75 1.987 7.77h-.42C.703 7.77 0 8.473 0 9.335v4.743c0 .863.702 1.567 1.565 1.567h2.091a16.899 16.899 0 002.57 3.687c4.46 4.848 10.696 6.036 14.561 3.016h2.102c.577 0 1.05-.473 1.05-1.05V18.43a1.03 1.03 0 00-.257-.668c.858-3.433-.045-7.642-2.52-11.219.002-.017.01-.032.01-.049V4.482a.822.822 0 00-.816-.819h-1.703C16.142 1.372 13.218.11 10.5.007zm1.75 2.18c1.78-.01 3.69.62 5.425 1.85a.797.797 0 00-.15.445v2.013c0 .449.368.82.816.82h2.016a.788.788 0 00.392-.116c2.248 3.302 2.735 7.322 1.24 10.18h-1.964c-.579 0-1.052.475-1.052 1.051v1.794c-2.991 1.3-7.005.222-9.964-2.992a12.743 12.743 0 01-1.55-2.098c.256-.279.416-.647.416-1.056V9.335c0-.862-.702-1.565-1.565-1.565H5.9c.238-1.364.781-2.612 1.688-3.596 1.225-1.331 2.88-1.98 4.661-1.988zm6.091 2.01h2.016c.162 0 .283.123.283.285v2.013c0 .163-.12.285-.283.285H18.34a.28.28 0 01-.285-.285V4.482a.28.28 0 01.285-.285zM1.566 8.303h4.743c.578 0 1.033.456 1.033 1.032v4.743c0 .577-.455 1.033-1.032 1.033H1.567a1.024 1.024 0 01-1.034-1.032V9.335c0-.576.455-1.032 1.032-1.032zm18.459 9.61h2.865c.29 0 .52.226.52.518v2.865a.512.512 0 01-.52.519h-2.865a.51.51 0 01-.519-.519v-2.864a.51.51 0 01.519-.518z"
     id="path4"
     style="fill:#2971d5;fill-opacity:1" />
</svg>
